<?xml version="1.0" standalone="no"?>
<!DOCTYPE svg PUBLIC "-//W3C//DTD SVG 20010904//EN"
 "http://www.w3.org/TR/2001/REC-SVG-20010904/DTD/svg10.dtd">
<svg version="1.0" xmlns="http://www.w3.org/2000/svg"
 width="360.000000pt" height="72.000000pt" viewBox="0 0 360.000000 72.000000"
 preserveAspectRatio="xMidYMid meet">
<metadata>
Created by potrace 1.15, written by Peter Selinger 2001-2017
</metadata>
<g transform="translate(0.000000,72.000000) scale(0.100000,-0.100000)"
fill="#000000" stroke="none">
<path d="M105 706 c-74 -27 -114 -100 -102 -184 6 -43 146 -334 164 -339 14
-5 117 193 108 207 -3 6 -16 5 -31 0 -32 -12 -64 -13 -64 -1 0 5 15 12 33 15
108 20 159 133 104 230 -39 71 -131 101 -212 72z"/>
<path d="M502 707 c-9 -11 -12 -80 -10 -268 l3 -254 40 -3 c44 -4 66 15 58 48
-3 11 -2 49 2 85 l7 65 66 0 c76 0 124 19 156 63 30 41 30 173 0 214 -34 46
-68 57 -194 61 -93 3 -118 1 -128 -11z m225 -103 c22 -22 25 -32 20 -72 -6
-57 -25 -72 -93 -72 -43 0 -54 4 -59 19 -4 13 -1 112 5 149 0 1 23 2 50 2 41
0 56 -5 77 -26z"/>
<path d="M1480 683 c-8 -3 -18 -11 -22 -17 -11 -16 -9 -353 2 -400 14 -64 39
-80 125 -84 73 -4 74 -4 81 22 8 35 -11 56 -51 56 -48 0 -56 17 -53 112 l3 83
50 5 c48 5 50 6 50 35 0 29 -2 30 -52 33 l-53 3 0 62 c0 34 -4 67 -8 74 -9 14
-52 24 -72 16z"/>
<path d="M1226 529 c-15 -4 -36 -15 -46 -24 -16 -15 -18 -14 -23 5 -5 18 -12
21 -44 18 l-38 -3 0 -170 0 -170 24 -3 c12 -2 34 -1 47 2 23 6 24 9 24 115 0
119 10 141 62 141 43 0 53 -24 58 -144 l5 -111 45 0 45 0 3 105 c4 130 -1 158
-36 199 -30 36 -81 52 -126 40z"/>
<path d="M2407 530 c-16 -5 -34 -13 -41 -19 -10 -8 -17 -7 -26 4 -16 19 -64
20 -79 1 -8 -9 -11 -64 -9 -172 l3 -159 45 0 45 0 3 103 c3 119 17 152 62 152
49 0 60 -25 60 -136 0 -111 6 -124 57 -124 48 0 56 24 51 145 -3 77 -9 111
-24 135 -34 59 -92 86 -147 70z"/>
<path d="M3126 519 c-35 -19 -40 -19 -48 -5 -9 17 -54 21 -76 8 -9 -7 -12 -48
-10 -173 l3 -164 45 0 45 0 5 102 c4 89 8 104 29 127 13 14 42 29 65 33 36 7
41 12 44 38 3 19 -2 33 -14 42 -25 18 -43 16 -88 -8z"/>
<path d="M904 517 c-2 -7 -3 -85 -2 -172 l3 -160 45 0 45 0 3 164 c2 125 -1
166 -10 173 -20 12 -78 9 -84 -5z"/>
<path d="M1722 518 c-8 -8 -12 -59 -12 -163 0 -166 3 -175 57 -175 27 0 35 5
43 26 13 34 13 280 0 305 -12 22 -68 27 -88 7z"/>
<path d="M1939 507 c-49 -32 -69 -79 -69 -158 0 -72 19 -113 71 -152 65 -48
173 -28 226 42 25 32 28 44 28 112 0 64 -4 81 -25 111 -31 46 -77 68 -144 68
-39 0 -62 -6 -87 -23z m134 -82 c51 -50 20 -165 -44 -165 -49 0 -78 108 -43
158 18 26 65 30 87 7z"/>
<path d="M2668 514 c-32 -17 -38 -54 -12 -75 12 -10 22 -10 48 -1 50 18 83 15
100 -10 26 -37 20 -48 -26 -48 -103 0 -158 -40 -158 -112 0 -84 91 -125 169
-77 31 18 35 19 43 5 13 -24 77 -21 86 3 4 11 5 74 2 141 l-5 122 -37 34 c-36
32 -41 34 -110 34 -45 -1 -84 -7 -100 -16z"/>
<path d="M3252 518 c-21 -21 -14 -42 53 -184 l65 -136 -17 -35 c-15 -32 -41
-50 -95 -67 -13 -4 -18 -16 -18 -42 l0 -36 67 4 c62 4 68 7 98 41 32 37 175
382 175 423 0 29 -19 44 -57 44 l-32 0 -33 -105 c-18 -57 -36 -105 -39 -105
-3 0 -24 46 -46 103 -38 100 -40 102 -74 105 -19 2 -40 -3 -47 -10z"/>
</g>
</svg>
